<svg width="1200" height="630" viewBox="0 0 1200 630" fill="none" xmlns="http://www.w3.org/2000/svg">
  <rect width="1200" height="630" fill="#060606"/>
  <defs>
    <radialGradient id="g1" cx="50%" cy="0%" r="70%">
      <stop offset="0%" stop-color="#6366f1" stop-opacity="0.2"/>
      <stop offset="100%" stop-color="#060606" stop-opacity="0"/>
    </radialGradient>
  </defs>
  <rect width="1200" height="630" fill="url(#g1)"/>
  <!-- Grid lines -->
  <line x1="0" y1="105" x2="1200" y2="105" stroke="white" stroke-opacity="0.03"/>
  <line x1="0" y1="210" x2="1200" y2="210" stroke="white" stroke-opacity="0.03"/>
  <line x1="0" y1="315" x2="1200" y2="315" stroke="white" stroke-opacity="0.03"/>
  <line x1="0" y1="420" x2="1200" y2="420" stroke="white" stroke-opacity="0.03"/>
  <line x1="0" y1="525" x2="1200" y2="525" stroke="white" stroke-opacity="0.03"/>
  <line x1="240" y1="0" x2="240" y2="630" stroke="white" stroke-opacity="0.03"/>
  <line x1="480" y1="0" x2="480" y2="630" stroke="white" stroke-opacity="0.03"/>
  <line x1="720" y1="0" x2="720" y2="630" stroke="white" stroke-opacity="0.03"/>
  <line x1="960" y1="0" x2="960" y2="630" stroke="white" stroke-opacity="0.03"/>
  <!-- Badge -->
  <rect x="80" y="180" width="220" height="28" rx="14" fill="#6366f1" fill-opacity="0.12" stroke="#6366f1" stroke-opacity="0.3" stroke-width="1"/>
  <circle cx="98" cy="194" r="5" fill="#22c55e"/>
  <text x="112" y="199" font-family="system-ui" font-size="13" font-weight="600" fill="#818cf8">Live Opportunities</text>
  <!-- Title -->
  <text x="80" y="295" font-family="system-ui,sans-serif" font-size="72" font-weight="800" fill="white" letter-spacing="-3">OpportuAI</text>
  <text x="80" y="365" font-family="system-ui,sans-serif" font-size="28" font-weight="400" fill="#666">Remote Jobs · AI Tools · Digital Products</text>
  <!-- Stats -->
  <text x="80" y="460" font-family="system-ui" font-size="18" font-weight="700" fill="#6366f1">117+</text>
  <text x="80" y="482" font-family="system-ui" font-size="13" fill="#444">Live Jobs</text>
  <text x="220" y="460" font-family="system-ui" font-size="18" font-weight="700" fill="#6366f1">50+</text>
  <text x="220" y="482" font-family="system-ui" font-size="13" fill="#444">AI Tools</text>
  <text x="340" y="460" font-family="system-ui" font-size="18" font-weight="700" fill="#6366f1">Free</text>
  <text x="340" y="482" font-family="system-ui" font-size="13" fill="#444">Forever</text>
  <!-- URL -->
  <text x="80" y="560" font-family="system-ui" font-size="14" fill="#333">opportunai.vercel.app</text>
</svg>